# Blender v2.77 (sub 0) OBJ File: 'kuutiot_separate.blend'
# www.blender.org
mtllib kuutiot_separate.mtl
o Cube
v 2.895620 0.000327 -2.895620
v -2.895619 0.000327 -2.895621
v -2.895620 0.000327 2.895619
v 2.895620 0.000327 2.895620
v 2.895620 0.000327 -2.895620
v 2.895620 0.000327 2.895620
v 2.895618 5.791567 2.895622
v 2.895621 5.791567 -2.895618
v 2.895620 0.000327 2.895620
v -2.895620 0.000327 2.895619
v -2.895621 5.791567 2.895619
v 2.895618 5.791567 2.895622
v 1.776680 1.285505 1.748711
v 1.436698 0.994289 1.060314
v 1.002330 0.455808 1.502633
v 1.342312 0.747023 2.191031
v 1.436698 0.994289 1.060314
v 2.044992 0.447009 0.991411
v 1.610623 -0.091473 1.433731
v 1.002330 0.455808 1.502633
v 2.044992 0.447009 0.991411
v 2.384974 0.738224 1.679809
v 1.950605 0.199742 2.122128
v 1.610623 -0.091473 1.433731
v 2.384974 0.738224 1.679809
v 1.776680 1.285505 1.748711
v 1.342312 0.747023 2.191031
v 1.950605 0.199742 2.122128
v 1.342312 0.747023 2.191031
v 1.002330 0.455808 1.502633
v 1.610623 -0.091473 1.433731
v 1.950605 0.199742 2.122128
v 2.384974 0.738224 1.679809
v 2.044992 0.447009 0.991411
v 1.436698 0.994289 1.060314
v 1.776680 1.285505 1.748711
v 1.044549 1.511904 2.983941
v 0.667023 1.700612 2.279562
v 0.843464 0.954641 1.985145
v 1.220990 0.765934 2.689524
v 0.667023 1.700612 2.279562
v 1.374574 1.987321 1.977147
v 1.551015 1.241351 1.682730
v 0.843464 0.954641 1.985145
v 1.374574 1.987321 1.977147
v 1.752100 1.798614 2.681526
v 1.928541 1.052643 2.387109
v 1.551015 1.241351 1.682730
v 1.752100 1.798614 2.681526
v 1.044549 1.511904 2.983941
v 1.220990 0.765934 2.689524
v 1.928541 1.052643 2.387109
v 1.220990 0.765934 2.689524
v 0.843464 0.954641 1.985145
v 1.551015 1.241351 1.682730
v 1.928541 1.052643 2.387109
v 1.752100 1.798614 2.681526
v 1.374574 1.987321 1.977147
v 0.667023 1.700612 2.279562
v 1.044549 1.511904 2.983941
v 2.517428 1.324343 2.318752
v 2.223152 1.556865 2.329247
v 2.001723 1.282409 2.201116
v 2.295998 1.049888 2.190621
v 2.223152 1.556865 2.329247
v 2.294881 1.663553 1.976760
v 2.073452 1.389098 1.848630
v 2.001723 1.282409 2.201116
v 2.294881 1.663553 1.976760
v 2.589157 1.431032 1.966265
v 2.367727 1.156577 1.838135
v 2.073452 1.389098 1.848630
v 2.589157 1.431032 1.966265
v 2.517428 1.324343 2.318752
v 2.295998 1.049888 2.190621
v 2.367727 1.156577 1.838135
v 2.295998 1.049888 2.190621
v 2.001723 1.282409 2.201116
v 2.073452 1.389098 1.848630
v 2.367727 1.156577 1.838135
v 2.589157 1.431032 1.966265
v 2.294881 1.663553 1.976760
v 2.223152 1.556865 2.329247
v 2.517428 1.324343 2.318752
vn 0.0000 1.0000 0.0000
vn -1.0000 -0.0000 -0.0000
vn 0.0000 0.0000 -1.0000
vn -0.7408 0.6665 0.0839
vn -0.4140 -0.3546 -0.8383
vn 0.7408 -0.6665 -0.0839
vn 0.4140 0.3546 0.8383
vn -0.5290 -0.6558 0.5387
vn 0.5290 0.6558 -0.5387
vn -0.8617 -0.3492 0.3683
vn -0.4598 0.2298 -0.8578
vn 0.8617 0.3492 -0.3683
vn 0.4598 -0.2298 0.8578
vn 0.2149 -0.9084 -0.3585
vn -0.2149 0.9084 0.3585
vn -0.1912 -0.2844 0.9395
vn -0.7843 0.6197 0.0280
vn 0.1912 0.2844 -0.9395
vn 0.7843 -0.6197 -0.0280
vn -0.5902 -0.7315 -0.3415
vn 0.5902 0.7315 0.3415
usemtl Material
s off
f 1//1 2//1 3//1 4//1
f 5//2 6//2 7//2 8//2
f 9//3 10//3 11//3 12//3
f 13//4 14//4 15//4 16//4
f 17//5 18//5 19//5 20//5
f 21//6 22//6 23//6 24//6
f 25//7 26//7 27//7 28//7
f 29//8 30//8 31//8 32//8
f 33//9 34//9 35//9 36//9
f 37//10 38//10 39//10 40//10
f 41//11 42//11 43//11 44//11
f 45//12 46//12 47//12 48//12
f 49//13 50//13 51//13 52//13
f 53//14 54//14 55//14 56//14
f 57//15 58//15 59//15 60//15
f 61//16 62//16 63//16 64//16
f 65//17 66//17 67//17 68//17
f 69//18 70//18 71//18 72//18
f 73//19 74//19 75//19 76//19
f 77//20 78//20 79//20 80//20
f 81//21 82//21 83//21 84//21
